<?xml version="1.0" encoding="UTF-8"?>
<svg width="1200pt" height="1200pt" version="1.1" viewBox="0 0 1200 1200" xmlns="http://www.w3.org/2000/svg">
 <g>
  <path d="m585.25 875h29.75c125 0 225-109.5 225-244.5v-386.25c0-135.25-100-244.25-225-244.25h-29.75c-125 0-225 109-225 244.25v387c0.5 135 101 243.75 225 243.75z"/>
  <path d="m897 439.75v210.25c-0.13281 73.535-29.367 144.03-81.32 196.08-51.953 52.043-122.39 81.406-195.93 81.672h-40c-73.492-0.26562-143.88-29.645-195.75-81.703-51.871-52.059-80.996-122.55-80.996-196.05v-210h-53v210c-0.0625 64.719 19.008 128.01 54.816 181.93 35.809 53.91 86.754 96.035 146.43 121.07 29.137 12.938 60.074 21.367 91.75 25v117.75c-100 5.75-173 26.75-173 52 1 27.25 103.25 52.25 230 52.25s228.75-25 228.75-53.5c0-25-75-46-172.25-52v-117.75c80.492-8.957 154.88-47.203 209-107.46 54.121-60.25 84.195-138.3 84.496-219.29v-210z"/>
 </g>
</svg>
